G04 #@! TF.GenerationSoftware,KiCad,Pcbnew,9.0.5*
G04 #@! TF.CreationDate,2025-10-24T01:36:13-07:00*
G04 #@! TF.ProjectId,New CAN Accessories board,4e657720-4341-44e2-9041-63636573736f,rev?*
G04 #@! TF.SameCoordinates,Original*
G04 #@! TF.FileFunction,Paste,Bot*
G04 #@! TF.FilePolarity,Positive*
%FSLAX46Y46*%
G04 Gerber Fmt 4.6, Leading zero omitted, Abs format (unit mm)*
G04 Created by KiCad (PCBNEW 9.0.5) date 2025-10-24 01:36:13*
%MOMM*%
%LPD*%
G01*
G04 APERTURE LIST*
G04 Aperture macros list*
%AMRoundRect*
0 Rectangle with rounded corners*
0 $1 Rounding radius*
0 $2 $3 $4 $5 $6 $7 $8 $9 X,Y pos of 4 corners*
0 Add a 4 corners polygon primitive as box body*
4,1,4,$2,$3,$4,$5,$6,$7,$8,$9,$2,$3,0*
0 Add four circle primitives for the rounded corners*
1,1,$1+$1,$2,$3*
1,1,$1+$1,$4,$5*
1,1,$1+$1,$6,$7*
1,1,$1+$1,$8,$9*
0 Add four rect primitives between the rounded corners*
20,1,$1+$1,$2,$3,$4,$5,0*
20,1,$1+$1,$4,$5,$6,$7,0*
20,1,$1+$1,$6,$7,$8,$9,0*
20,1,$1+$1,$8,$9,$2,$3,0*%
G04 Aperture macros list end*
%ADD10RoundRect,0.150000X0.825000X0.150000X-0.825000X0.150000X-0.825000X-0.150000X0.825000X-0.150000X0*%
%ADD11RoundRect,0.162500X0.162500X-0.617500X0.162500X0.617500X-0.162500X0.617500X-0.162500X-0.617500X0*%
%ADD12RoundRect,0.249999X1.425001X-0.450001X1.425001X0.450001X-1.425001X0.450001X-1.425001X-0.450001X0*%
%ADD13RoundRect,0.250000X0.250000X0.475000X-0.250000X0.475000X-0.250000X-0.475000X0.250000X-0.475000X0*%
%ADD14RoundRect,0.250000X-0.475000X0.250000X-0.475000X-0.250000X0.475000X-0.250000X0.475000X0.250000X0*%
%ADD15RoundRect,0.250000X-0.250000X-0.475000X0.250000X-0.475000X0.250000X0.475000X-0.250000X0.475000X0*%
%ADD16RoundRect,0.250000X-0.450000X0.262500X-0.450000X-0.262500X0.450000X-0.262500X0.450000X0.262500X0*%
G04 APERTURE END LIST*
D10*
X53529000Y-90784499D03*
X53529000Y-92054499D03*
X53529000Y-93324499D03*
X53529000Y-94594499D03*
X48579000Y-94594499D03*
X48579000Y-93324499D03*
X48579000Y-92054499D03*
X48579000Y-90784499D03*
D11*
X49303000Y-46000000D03*
X48353000Y-46000000D03*
X47403000Y-46000000D03*
X47403000Y-43300000D03*
X48353000Y-43300000D03*
X49303000Y-43300000D03*
D12*
X19740000Y-47700000D03*
X19740000Y-41600000D03*
D13*
X61303000Y-40940000D03*
X59403000Y-40940000D03*
D14*
X46184000Y-94808000D03*
X46184000Y-96708000D03*
D11*
X61303000Y-46000000D03*
X60353000Y-46000000D03*
X59403000Y-46000000D03*
X59403000Y-43300000D03*
X60353000Y-43300000D03*
X61303000Y-43300000D03*
D12*
X55630000Y-47700000D03*
X55630000Y-41600000D03*
D13*
X25413000Y-40940000D03*
X23513000Y-40940000D03*
X85049000Y-40897000D03*
X83149000Y-40897000D03*
D12*
X79376000Y-47657000D03*
X79376000Y-41557000D03*
D11*
X109049000Y-45957000D03*
X108099000Y-45957000D03*
X107149000Y-45957000D03*
X107149000Y-43257000D03*
X108099000Y-43257000D03*
X109049000Y-43257000D03*
X97303000Y-46185000D03*
X96353000Y-46185000D03*
X95403000Y-46185000D03*
X95403000Y-43485000D03*
X96353000Y-43485000D03*
X97303000Y-43485000D03*
D13*
X49303000Y-40940000D03*
X47403000Y-40940000D03*
D12*
X67708571Y-47700000D03*
X67708571Y-41600000D03*
X31630000Y-47700000D03*
X31630000Y-41600000D03*
X103376000Y-47657000D03*
X103376000Y-41557000D03*
D13*
X37303000Y-40940000D03*
X35403000Y-40940000D03*
D15*
X58232000Y-92621999D03*
X60132000Y-92621999D03*
D13*
X109049000Y-40897000D03*
X107149000Y-40897000D03*
X97303000Y-41125000D03*
X95403000Y-41125000D03*
D11*
X73381571Y-46000000D03*
X72431571Y-46000000D03*
X71481571Y-46000000D03*
X71481571Y-43300000D03*
X72431571Y-43300000D03*
X73381571Y-43300000D03*
X85049000Y-45957000D03*
X84099000Y-45957000D03*
X83149000Y-45957000D03*
X83149000Y-43257000D03*
X84099000Y-43257000D03*
X85049000Y-43257000D03*
D13*
X73381571Y-40940000D03*
X71481571Y-40940000D03*
D11*
X37303000Y-46000000D03*
X36353000Y-46000000D03*
X35403000Y-46000000D03*
X35403000Y-43300000D03*
X36353000Y-43300000D03*
X37303000Y-43300000D03*
D16*
X29132000Y-91057000D03*
X29132000Y-92882000D03*
D12*
X43630000Y-47700000D03*
X43630000Y-41600000D03*
D11*
X25413000Y-46000000D03*
X24463000Y-46000000D03*
X23513000Y-46000000D03*
X23513000Y-43300000D03*
X24463000Y-43300000D03*
X25413000Y-43300000D03*
D16*
X65786000Y-91035500D03*
X65786000Y-92860500D03*
D12*
X91630000Y-47885000D03*
X91630000Y-41785000D03*
M02*
