M48
; DRILL file {KiCad 9.0.5} date 2025-10-24T01:37:34-0700
; FORMAT={-:-/ absolute / metric / decimal}
; #@! TF.CreationDate,2025-10-24T01:37:34-07:00
; #@! TF.GenerationSoftware,Kicad,Pcbnew,9.0.5
; #@! TF.FileFunction,Plated,1,2,PTH
FMAT,2
METRIC
; #@! TA.AperFunction,Plated,PTH,ViaDrill
T1C0.300
; #@! TA.AperFunction,Plated,PTH,ComponentDrill
T2C0.889
; #@! TA.AperFunction,Plated,PTH,ComponentDrill
T3C1.000
; #@! TA.AperFunction,Plated,PTH,ComponentDrill
T4C1.020
; #@! TA.AperFunction,Plated,PTH,ComponentDrill
T5C1.700
; #@! TA.AperFunction,Plated,PTH,ComponentDrill
T6C1.800
%
G90
G05
T1
X17.64Y-40.03
X20.16Y-67.08
X22.06Y-61.1
X25.0Y-58.0
X25.654Y-55.372
X27.0Y-46.0
X27.0Y-60.0
X27.78Y-58.02
X29.0Y-40.0
X37.0Y-58.0
X37.592Y-55.372
X39.0Y-46.0
X39.5Y-60.5
X39.75Y-57.33
X41.0Y-40.0
X49.0Y-58.0
X50.038Y-55.372
X50.26Y-70.75
X51.0Y-46.0
X51.5Y-59.5
X52.349Y-56.47
X52.832Y-40.0
X58.674Y-85.852
X59.69Y-86.868
X61.0Y-58.0
X62.738Y-55.372
X62.992Y-90.424
X63.0Y-46.0
X64.0Y-60.0
X64.349Y-56.52
X65.0Y-40.0
X70.358Y-87.884
X73.0Y-58.0
X73.66Y-55.372
X75.0Y-46.0
X75.0Y-59.0
X75.849Y-57.05
X77.0Y-41.0
X85.801Y-55.27
X86.0Y-58.0
X86.106Y-59.69
X86.45Y-46.0
X89.0Y-40.0
X89.0Y-60.0
X97.05Y-57.889
X97.282Y-59.182
X98.199Y-55.68
X99.0Y-46.0
X101.0Y-40.0
X101.0Y-60.0
X109.0Y-58.0
X110.884Y-58.163
X111.5Y-57.652
X112.014Y-56.896
X112.268Y-51.816
X112.268Y-53.097
X112.268Y-54.864
X112.268Y-56.116
T2
X71.36Y-90.972
X71.36Y-94.272
X73.86Y-90.972
X73.86Y-94.272
X76.36Y-90.972
X76.36Y-94.272
T3
X31.15Y-97.26
X33.69Y-97.26
X36.23Y-97.26
X80.01Y-65.024
X81.534Y-92.964
X82.55Y-65.024
X84.074Y-92.964
X85.09Y-65.024
X86.614Y-92.964
X87.63Y-65.024
X89.154Y-92.964
X90.17Y-65.024
X91.694Y-92.964
X92.71Y-65.024
X94.234Y-92.964
X95.25Y-65.024
X96.774Y-92.964
X97.79Y-65.024
X99.314Y-92.964
X101.854Y-92.964
X104.394Y-92.964
X106.934Y-92.964
X109.474Y-92.964
X117.025Y-29.464
X117.025Y-32.004
X117.025Y-34.544
X117.025Y-37.084
X117.025Y-39.624
X117.025Y-42.164
X117.025Y-44.704
X117.025Y-47.244
X117.025Y-49.784
X117.025Y-52.324
X117.025Y-54.864
X117.025Y-57.404
X117.025Y-59.944
X117.025Y-62.484
X117.025Y-65.024
X117.025Y-67.564
T4
X75.143Y-71.374
X75.143Y-86.614
X77.683Y-71.374
X77.683Y-86.614
X80.223Y-71.374
X80.223Y-86.614
X82.763Y-71.374
X82.763Y-86.614
X85.303Y-71.374
X85.303Y-86.614
X87.843Y-71.374
X87.843Y-86.614
X90.383Y-71.374
X90.383Y-86.614
X92.923Y-71.374
X92.923Y-86.614
X95.463Y-71.374
X95.463Y-86.614
X98.003Y-71.374
X98.003Y-86.614
X100.543Y-71.374
X100.543Y-86.614
X103.083Y-71.374
X103.083Y-86.614
X105.623Y-71.374
X105.623Y-86.614
X108.163Y-71.374
X108.163Y-86.614
X110.703Y-71.374
X110.703Y-86.614
T5
X51.91Y-81.455
X57.31Y-81.455
T6
X19.9Y-30.275
X19.9Y-35.775
X24.1Y-30.275
X24.1Y-35.775
X30.275Y-67.6
X30.275Y-71.8
X30.275Y-76.0
X30.3Y-82.9
X30.3Y-87.1
X31.9Y-30.46
X31.9Y-35.96
X35.775Y-67.6
X35.775Y-71.8
X35.775Y-76.0
X35.8Y-82.9
X35.8Y-87.1
X36.1Y-30.46
X36.1Y-35.96
X43.9Y-30.46
X43.9Y-35.96
X48.1Y-30.46
X48.1Y-35.96
X55.9Y-30.46
X55.9Y-35.96
X60.1Y-30.46
X60.1Y-35.96
X67.9Y-30.46
X67.9Y-35.96
X72.1Y-30.46
X72.1Y-35.96
X79.9Y-30.46
X79.9Y-35.96
X84.1Y-30.46
X84.1Y-35.96
X91.9Y-30.46
X91.9Y-35.96
X96.1Y-30.46
X96.1Y-35.96
X103.9Y-30.46
X103.9Y-35.96
X108.1Y-30.46
X108.1Y-35.96
M30
