G04 #@! TF.GenerationSoftware,KiCad,Pcbnew,9.0.5*
G04 #@! TF.CreationDate,2025-10-24T01:36:13-07:00*
G04 #@! TF.ProjectId,New CAN Accessories board,4e657720-4341-44e2-9041-63636573736f,rev?*
G04 #@! TF.SameCoordinates,Original*
G04 #@! TF.FileFunction,Soldermask,Bot*
G04 #@! TF.FilePolarity,Negative*
%FSLAX46Y46*%
G04 Gerber Fmt 4.6, Leading zero omitted, Abs format (unit mm)*
G04 Created by KiCad (PCBNEW 9.0.5) date 2025-10-24 01:36:13*
%MOMM*%
%LPD*%
G01*
G04 APERTURE LIST*
G04 Aperture macros list*
%AMRoundRect*
0 Rectangle with rounded corners*
0 $1 Rounding radius*
0 $2 $3 $4 $5 $6 $7 $8 $9 X,Y pos of 4 corners*
0 Add a 4 corners polygon primitive as box body*
4,1,4,$2,$3,$4,$5,$6,$7,$8,$9,$2,$3,0*
0 Add four circle primitives for the rounded corners*
1,1,$1+$1,$2,$3*
1,1,$1+$1,$4,$5*
1,1,$1+$1,$6,$7*
1,1,$1+$1,$8,$9*
0 Add four rect primitives between the rounded corners*
20,1,$1+$1,$2,$3,$4,$5,0*
20,1,$1+$1,$4,$5,$6,$7,0*
20,1,$1+$1,$6,$7,$8,$9,0*
20,1,$1+$1,$8,$9,$2,$3,0*%
G04 Aperture macros list end*
%ADD10C,3.000000*%
%ADD11RoundRect,0.250001X-1.099999X-1.599999X1.099999X-1.599999X1.099999X1.599999X-1.099999X1.599999X0*%
%ADD12O,2.700000X3.700000*%
%ADD13R,1.700000X1.700000*%
%ADD14C,1.700000*%
%ADD15C,1.530000*%
%ADD16R,1.530000X1.530000*%
%ADD17C,1.397000*%
%ADD18C,3.200000*%
%ADD19RoundRect,0.250001X1.599999X-1.099999X1.599999X1.099999X-1.599999X1.099999X-1.599999X-1.099999X0*%
%ADD20O,3.700000X2.700000*%
%ADD21C,3.300000*%
%ADD22C,2.550000*%
%ADD23RoundRect,0.150000X0.825000X0.150000X-0.825000X0.150000X-0.825000X-0.150000X0.825000X-0.150000X0*%
%ADD24RoundRect,0.162500X0.162500X-0.617500X0.162500X0.617500X-0.162500X0.617500X-0.162500X-0.617500X0*%
%ADD25RoundRect,0.249999X1.425001X-0.450001X1.425001X0.450001X-1.425001X0.450001X-1.425001X-0.450001X0*%
%ADD26RoundRect,0.250000X0.250000X0.475000X-0.250000X0.475000X-0.250000X-0.475000X0.250000X-0.475000X0*%
%ADD27RoundRect,0.250000X-0.475000X0.250000X-0.475000X-0.250000X0.475000X-0.250000X0.475000X0.250000X0*%
%ADD28RoundRect,0.250000X-0.250000X-0.475000X0.250000X-0.475000X0.250000X0.475000X-0.250000X0.475000X0*%
%ADD29R,1.000000X1.500000*%
%ADD30RoundRect,0.250000X-0.450000X0.262500X-0.450000X-0.262500X0.450000X-0.262500X0.450000X0.262500X0*%
G04 APERTURE END LIST*
G36*
X32300000Y-94400000D02*
G01*
X32600000Y-94400000D01*
X32600000Y-92900000D01*
X32300000Y-92900000D01*
X32300000Y-94400000D01*
G37*
D10*
X46000000Y-23160000D03*
D11*
X43900000Y-30460000D03*
D12*
X48100000Y-30460000D03*
X43900000Y-35960000D03*
X48100000Y-35960000D03*
D13*
X81534000Y-92964000D03*
D14*
X84074000Y-92964000D03*
X86614000Y-92964000D03*
X89154000Y-92964000D03*
X91694000Y-92964000D03*
X94234000Y-92964000D03*
X96774000Y-92964000D03*
X99314000Y-92964000D03*
X101854000Y-92964000D03*
X104394000Y-92964000D03*
X106934000Y-92964000D03*
X109474000Y-92964000D03*
D13*
X117025000Y-29464000D03*
D14*
X117025000Y-32004000D03*
X117025000Y-34544000D03*
X117025000Y-37084000D03*
X117025000Y-39624000D03*
X117025000Y-42164000D03*
X117025000Y-44704000D03*
X117025000Y-47244000D03*
X117025000Y-49784000D03*
X117025000Y-52324000D03*
X117025000Y-54864000D03*
X117025000Y-57404000D03*
X117025000Y-59944000D03*
X117025000Y-62484000D03*
X117025000Y-65024000D03*
X117025000Y-67564000D03*
D10*
X70000000Y-23160000D03*
D11*
X67900000Y-30460000D03*
D12*
X72100000Y-30460000D03*
X67900000Y-35960000D03*
X72100000Y-35960000D03*
D10*
X22000000Y-22975000D03*
D11*
X19900000Y-30275000D03*
D12*
X24100000Y-30275000D03*
X19900000Y-35775000D03*
X24100000Y-35775000D03*
D13*
X80010000Y-65024000D03*
D14*
X82550000Y-65024000D03*
X85090000Y-65024000D03*
X87630000Y-65024000D03*
X90170000Y-65024000D03*
X92710000Y-65024000D03*
X95250000Y-65024000D03*
X97790000Y-65024000D03*
D15*
X77683000Y-86614000D03*
X103083000Y-86614000D03*
X80223000Y-86614000D03*
X103083000Y-71374000D03*
X108163000Y-86614000D03*
X105623000Y-71374000D03*
X105623000Y-86614000D03*
X82763000Y-86614000D03*
X85303000Y-86614000D03*
X100543000Y-86614000D03*
X87843000Y-86614000D03*
X90383000Y-86614000D03*
X92923000Y-86614000D03*
X95463000Y-86614000D03*
X98003000Y-86614000D03*
X82763000Y-71374000D03*
D16*
X110703000Y-71374000D03*
D15*
X108163000Y-71374000D03*
X80223000Y-71374000D03*
X100543000Y-71374000D03*
X98003000Y-71374000D03*
X90383000Y-71374000D03*
X75143000Y-86614000D03*
X75143000Y-71374000D03*
X77683000Y-71374000D03*
X92923000Y-71374000D03*
X95463000Y-71374000D03*
X87843000Y-71374000D03*
X85303000Y-71374000D03*
D16*
X110703000Y-86614000D03*
D17*
X71360000Y-94272000D03*
X73860000Y-94272000D03*
X76360000Y-94272000D03*
X76360000Y-90972000D03*
X73860000Y-90972000D03*
X71360000Y-90972000D03*
D18*
X21000000Y-102000000D03*
D13*
X31150000Y-97260000D03*
D14*
X33690000Y-97260000D03*
X36230000Y-97260000D03*
D10*
X23000000Y-85000000D03*
D19*
X30300000Y-87100000D03*
D20*
X30300000Y-82900000D03*
X35800000Y-87100000D03*
X35800000Y-82900000D03*
D21*
X46025000Y-81455000D03*
X63195000Y-81455000D03*
D22*
X51910000Y-81455000D03*
X57310000Y-81455000D03*
D10*
X22975000Y-76000000D03*
X22975000Y-67600000D03*
D19*
X30275000Y-76000000D03*
D20*
X30275000Y-71800000D03*
X30275000Y-67600000D03*
X35775000Y-76000000D03*
X35775000Y-71800000D03*
X35775000Y-67600000D03*
D10*
X82000000Y-23160000D03*
D11*
X79900000Y-30460000D03*
D12*
X84100000Y-30460000D03*
X79900000Y-35960000D03*
X84100000Y-35960000D03*
D10*
X34000000Y-23160000D03*
D11*
X31900000Y-30460000D03*
D12*
X36100000Y-30460000D03*
X31900000Y-35960000D03*
X36100000Y-35960000D03*
D10*
X106000000Y-23160000D03*
D11*
X103900000Y-30460000D03*
D12*
X108100000Y-30460000D03*
X103900000Y-35960000D03*
X108100000Y-35960000D03*
D10*
X58000000Y-23160000D03*
D11*
X55900000Y-30460000D03*
D12*
X60100000Y-30460000D03*
X55900000Y-35960000D03*
X60100000Y-35960000D03*
D10*
X94000000Y-23160000D03*
D11*
X91900000Y-30460000D03*
D12*
X96100000Y-30460000D03*
X91900000Y-35960000D03*
X96100000Y-35960000D03*
D18*
X117025000Y-102025000D03*
X117025000Y-20975000D03*
D23*
X53529000Y-90784499D03*
X53529000Y-92054499D03*
X53529000Y-93324499D03*
X53529000Y-94594499D03*
X48579000Y-94594499D03*
X48579000Y-93324499D03*
X48579000Y-92054499D03*
X48579000Y-90784499D03*
D24*
X49303000Y-46000000D03*
X48353000Y-46000000D03*
X47403000Y-46000000D03*
X47403000Y-43300000D03*
X48353000Y-43300000D03*
X49303000Y-43300000D03*
D25*
X19740000Y-47700000D03*
X19740000Y-41600000D03*
D26*
X61303000Y-40940000D03*
X59403000Y-40940000D03*
D27*
X46184000Y-94808000D03*
X46184000Y-96708000D03*
D24*
X61303000Y-46000000D03*
X60353000Y-46000000D03*
X59403000Y-46000000D03*
X59403000Y-43300000D03*
X60353000Y-43300000D03*
X61303000Y-43300000D03*
D25*
X55630000Y-47700000D03*
X55630000Y-41600000D03*
D26*
X25413000Y-40940000D03*
X23513000Y-40940000D03*
X85049000Y-40897000D03*
X83149000Y-40897000D03*
D25*
X79376000Y-47657000D03*
X79376000Y-41557000D03*
D24*
X109049000Y-45957000D03*
X108099000Y-45957000D03*
X107149000Y-45957000D03*
X107149000Y-43257000D03*
X108099000Y-43257000D03*
X109049000Y-43257000D03*
X97303000Y-46185000D03*
X96353000Y-46185000D03*
X95403000Y-46185000D03*
X95403000Y-43485000D03*
X96353000Y-43485000D03*
X97303000Y-43485000D03*
D26*
X49303000Y-40940000D03*
X47403000Y-40940000D03*
D25*
X67708571Y-47700000D03*
X67708571Y-41600000D03*
X31630000Y-47700000D03*
X31630000Y-41600000D03*
X103376000Y-47657000D03*
X103376000Y-41557000D03*
D26*
X37303000Y-40940000D03*
X35403000Y-40940000D03*
D28*
X58232000Y-92621999D03*
X60132000Y-92621999D03*
D26*
X109049000Y-40897000D03*
X107149000Y-40897000D03*
D29*
X31800000Y-93650000D03*
X33100000Y-93650000D03*
D26*
X97303000Y-41125000D03*
X95403000Y-41125000D03*
D24*
X73381571Y-46000000D03*
X72431571Y-46000000D03*
X71481571Y-46000000D03*
X71481571Y-43300000D03*
X72431571Y-43300000D03*
X73381571Y-43300000D03*
X85049000Y-45957000D03*
X84099000Y-45957000D03*
X83149000Y-45957000D03*
X83149000Y-43257000D03*
X84099000Y-43257000D03*
X85049000Y-43257000D03*
D26*
X73381571Y-40940000D03*
X71481571Y-40940000D03*
D24*
X37303000Y-46000000D03*
X36353000Y-46000000D03*
X35403000Y-46000000D03*
X35403000Y-43300000D03*
X36353000Y-43300000D03*
X37303000Y-43300000D03*
D30*
X29132000Y-91057000D03*
X29132000Y-92882000D03*
D25*
X43630000Y-47700000D03*
X43630000Y-41600000D03*
D24*
X25413000Y-46000000D03*
X24463000Y-46000000D03*
X23513000Y-46000000D03*
X23513000Y-43300000D03*
X24463000Y-43300000D03*
X25413000Y-43300000D03*
D30*
X65786000Y-91035500D03*
X65786000Y-92860500D03*
D25*
X91630000Y-47885000D03*
X91630000Y-41785000D03*
M02*
