G04 #@! TF.GenerationSoftware,KiCad,Pcbnew,9.0.5*
G04 #@! TF.CreationDate,2025-10-24T01:36:13-07:00*
G04 #@! TF.ProjectId,New CAN Accessories board,4e657720-4341-44e2-9041-63636573736f,rev?*
G04 #@! TF.SameCoordinates,Original*
G04 #@! TF.FileFunction,Copper,L1,Top*
G04 #@! TF.FilePolarity,Positive*
%FSLAX46Y46*%
G04 Gerber Fmt 4.6, Leading zero omitted, Abs format (unit mm)*
G04 Created by KiCad (PCBNEW 9.0.5) date 2025-10-24 01:36:13*
%MOMM*%
%LPD*%
G01*
G04 APERTURE LIST*
G04 Aperture macros list*
%AMRoundRect*
0 Rectangle with rounded corners*
0 $1 Rounding radius*
0 $2 $3 $4 $5 $6 $7 $8 $9 X,Y pos of 4 corners*
0 Add a 4 corners polygon primitive as box body*
4,1,4,$2,$3,$4,$5,$6,$7,$8,$9,$2,$3,0*
0 Add four circle primitives for the rounded corners*
1,1,$1+$1,$2,$3*
1,1,$1+$1,$4,$5*
1,1,$1+$1,$6,$7*
1,1,$1+$1,$8,$9*
0 Add four rect primitives between the rounded corners*
20,1,$1+$1,$2,$3,$4,$5,0*
20,1,$1+$1,$4,$5,$6,$7,0*
20,1,$1+$1,$6,$7,$8,$9,0*
20,1,$1+$1,$8,$9,$2,$3,0*%
G04 Aperture macros list end*
G04 #@! TA.AperFunction,SMDPad,CuDef*
%ADD10R,1.700000X1.700000*%
G04 #@! TD*
G04 #@! TA.AperFunction,SMDPad,CuDef*
%ADD11R,1.700000X2.660000*%
G04 #@! TD*
G04 #@! TA.AperFunction,SMDPad,CuDef*
%ADD12RoundRect,0.162500X0.162500X-0.447500X0.162500X0.447500X-0.162500X0.447500X-0.162500X-0.447500X0*%
G04 #@! TD*
G04 #@! TA.AperFunction,SMDPad,CuDef*
%ADD13RoundRect,0.243750X-0.456250X0.243750X-0.456250X-0.243750X0.456250X-0.243750X0.456250X0.243750X0*%
G04 #@! TD*
G04 #@! TA.AperFunction,ComponentPad*
%ADD14RoundRect,0.250001X-1.099999X-1.599999X1.099999X-1.599999X1.099999X1.599999X-1.099999X1.599999X0*%
G04 #@! TD*
G04 #@! TA.AperFunction,ComponentPad*
%ADD15O,2.700000X3.700000*%
G04 #@! TD*
G04 #@! TA.AperFunction,SMDPad,CuDef*
%ADD16RoundRect,0.250000X0.450000X-0.262500X0.450000X0.262500X-0.450000X0.262500X-0.450000X-0.262500X0*%
G04 #@! TD*
G04 #@! TA.AperFunction,ComponentPad*
%ADD17R,1.700000X1.700000*%
G04 #@! TD*
G04 #@! TA.AperFunction,ComponentPad*
%ADD18C,1.700000*%
G04 #@! TD*
G04 #@! TA.AperFunction,SMDPad,CuDef*
%ADD19RoundRect,0.250000X0.400000X0.450000X-0.400000X0.450000X-0.400000X-0.450000X0.400000X-0.450000X0*%
G04 #@! TD*
G04 #@! TA.AperFunction,ComponentPad*
%ADD20C,1.530000*%
G04 #@! TD*
G04 #@! TA.AperFunction,ComponentPad*
%ADD21R,1.530000X1.530000*%
G04 #@! TD*
G04 #@! TA.AperFunction,ComponentPad*
%ADD22C,1.397000*%
G04 #@! TD*
G04 #@! TA.AperFunction,ComponentPad*
%ADD23RoundRect,0.250001X1.599999X-1.099999X1.599999X1.099999X-1.599999X1.099999X-1.599999X-1.099999X0*%
G04 #@! TD*
G04 #@! TA.AperFunction,ComponentPad*
%ADD24O,3.700000X2.700000*%
G04 #@! TD*
G04 #@! TA.AperFunction,ComponentPad*
%ADD25C,2.550000*%
G04 #@! TD*
G04 #@! TA.AperFunction,SMDPad,CuDef*
%ADD26R,4.500000X2.300000*%
G04 #@! TD*
G04 #@! TA.AperFunction,ViaPad*
%ADD27C,0.600000*%
G04 #@! TD*
G04 #@! TA.AperFunction,ViaPad*
%ADD28C,2.000000*%
G04 #@! TD*
G04 #@! TA.AperFunction,ViaPad*
%ADD29C,1.500000*%
G04 #@! TD*
G04 #@! TA.AperFunction,Conductor*
%ADD30C,0.500000*%
G04 #@! TD*
G04 #@! TA.AperFunction,Conductor*
%ADD31C,2.000000*%
G04 #@! TD*
G04 #@! TA.AperFunction,Conductor*
%ADD32C,1.000000*%
G04 #@! TD*
G04 #@! TA.AperFunction,Conductor*
%ADD33C,0.200000*%
G04 #@! TD*
G04 #@! TA.AperFunction,Conductor*
%ADD34C,1.500000*%
G04 #@! TD*
G04 APERTURE END LIST*
D10*
X71078571Y-40966000D03*
D11*
X73528571Y-43256000D03*
X68628571Y-43256000D03*
X73528571Y-51084000D03*
X68628571Y-51084000D03*
D10*
X71078571Y-53374000D03*
D12*
X58050000Y-58125000D03*
X59950000Y-58125000D03*
X59000000Y-55505000D03*
D13*
X18700000Y-49562500D03*
X18700000Y-51437500D03*
D14*
X43900000Y-30460000D03*
D15*
X48100000Y-30460000D03*
X43900000Y-35960000D03*
X48100000Y-35960000D03*
D16*
X18000000Y-55912500D03*
X18000000Y-54087500D03*
D17*
X81534000Y-92964000D03*
D18*
X84074000Y-92964000D03*
X86614000Y-92964000D03*
X89154000Y-92964000D03*
X91694000Y-92964000D03*
X94234000Y-92964000D03*
X96774000Y-92964000D03*
X99314000Y-92964000D03*
X101854000Y-92964000D03*
X104394000Y-92964000D03*
X106934000Y-92964000D03*
X109474000Y-92964000D03*
D12*
X22160000Y-58125000D03*
X24060000Y-58125000D03*
X23110000Y-55505000D03*
D16*
X53500000Y-55912500D03*
X53500000Y-54087500D03*
D12*
X70128571Y-58125000D03*
X72028571Y-58125000D03*
X71078571Y-55505000D03*
X46050000Y-58125000D03*
X47950000Y-58125000D03*
X47000000Y-55505000D03*
D10*
X59000000Y-40966000D03*
D11*
X61450000Y-43256000D03*
X56550000Y-43256000D03*
X61450000Y-51084000D03*
X56550000Y-51084000D03*
D10*
X59000000Y-53374000D03*
D17*
X117025000Y-29464000D03*
D18*
X117025000Y-32004000D03*
X117025000Y-34544000D03*
X117025000Y-37084000D03*
X117025000Y-39624000D03*
X117025000Y-42164000D03*
X117025000Y-44704000D03*
X117025000Y-47244000D03*
X117025000Y-49784000D03*
X117025000Y-52324000D03*
X117025000Y-54864000D03*
X117025000Y-57404000D03*
X117025000Y-59944000D03*
X117025000Y-62484000D03*
X117025000Y-65024000D03*
X117025000Y-67564000D03*
D12*
X81796000Y-58082000D03*
X83696000Y-58082000D03*
X82746000Y-55462000D03*
D13*
X78000000Y-50062500D03*
X78000000Y-51937500D03*
D16*
X43995000Y-55912500D03*
X43995000Y-54087500D03*
X104000000Y-55912500D03*
X104000000Y-54087500D03*
X56000000Y-55912500D03*
X56000000Y-54087500D03*
D14*
X67900000Y-30460000D03*
D15*
X72100000Y-30460000D03*
X67900000Y-35960000D03*
X72100000Y-35960000D03*
D10*
X35000000Y-40966000D03*
D11*
X37450000Y-43256000D03*
X32550000Y-43256000D03*
X37450000Y-51084000D03*
X32550000Y-51084000D03*
D10*
X35000000Y-53374000D03*
D16*
X41495000Y-55912500D03*
X41495000Y-54087500D03*
D19*
X20450000Y-58000000D03*
X17550000Y-58000000D03*
D13*
X41995000Y-49562500D03*
X41995000Y-51437500D03*
D19*
X55950000Y-58000000D03*
X53050000Y-58000000D03*
D14*
X19900000Y-30275000D03*
D15*
X24100000Y-30275000D03*
X19900000Y-35775000D03*
X24100000Y-35775000D03*
D17*
X80010000Y-65024000D03*
D18*
X82550000Y-65024000D03*
X85090000Y-65024000D03*
X87630000Y-65024000D03*
X90170000Y-65024000D03*
X92710000Y-65024000D03*
X95250000Y-65024000D03*
X97790000Y-65024000D03*
D20*
X77683000Y-86614000D03*
X103083000Y-86614000D03*
X80223000Y-86614000D03*
X103083000Y-71374000D03*
X108163000Y-86614000D03*
X105623000Y-71374000D03*
X105623000Y-86614000D03*
X82763000Y-86614000D03*
X85303000Y-86614000D03*
X100543000Y-86614000D03*
X87843000Y-86614000D03*
X90383000Y-86614000D03*
X92923000Y-86614000D03*
X95463000Y-86614000D03*
X98003000Y-86614000D03*
X82763000Y-71374000D03*
D21*
X110703000Y-71374000D03*
D20*
X108163000Y-71374000D03*
X80223000Y-71374000D03*
X100543000Y-71374000D03*
X98003000Y-71374000D03*
X90383000Y-71374000D03*
X75143000Y-86614000D03*
X75143000Y-71374000D03*
X77683000Y-71374000D03*
X92923000Y-71374000D03*
X95463000Y-71374000D03*
X87843000Y-71374000D03*
X85303000Y-71374000D03*
D21*
X110703000Y-86614000D03*
D19*
X43945000Y-58000000D03*
X41045000Y-58000000D03*
D10*
X106746000Y-40923000D03*
D11*
X109196000Y-43213000D03*
X104296000Y-43213000D03*
X109196000Y-51041000D03*
X104296000Y-51041000D03*
D10*
X106746000Y-53331000D03*
D16*
X20000000Y-55912500D03*
X20000000Y-54087500D03*
D22*
X71360000Y-94272000D03*
X73860000Y-94272000D03*
X76360000Y-94272000D03*
X76360000Y-90972000D03*
X73860000Y-90972000D03*
X71360000Y-90972000D03*
D19*
X79450000Y-58000000D03*
X76550000Y-58000000D03*
D16*
X77000000Y-55912500D03*
X77000000Y-54087500D03*
D19*
X67950000Y-58000000D03*
X65050000Y-58000000D03*
D16*
X89000000Y-55912500D03*
X89000000Y-54087500D03*
D10*
X95000000Y-41151000D03*
D11*
X97450000Y-43441000D03*
X92550000Y-43441000D03*
X97450000Y-51269000D03*
X92550000Y-51269000D03*
D10*
X95000000Y-53559000D03*
D17*
X31150000Y-97260000D03*
D18*
X33690000Y-97260000D03*
X36230000Y-97260000D03*
D13*
X90000000Y-50062500D03*
X90000000Y-51937500D03*
X54500000Y-50062500D03*
X54500000Y-51937500D03*
D23*
X30300000Y-87100000D03*
D24*
X30300000Y-82900000D03*
X35800000Y-87100000D03*
X35800000Y-82900000D03*
D25*
X51910000Y-81455000D03*
X57310000Y-81455000D03*
D23*
X30275000Y-76000000D03*
D24*
X30275000Y-71800000D03*
X30275000Y-67600000D03*
X35775000Y-76000000D03*
X35775000Y-71800000D03*
X35775000Y-67600000D03*
D16*
X101000000Y-55912500D03*
X101000000Y-54087500D03*
D12*
X94050000Y-58310000D03*
X95950000Y-58310000D03*
X95000000Y-55690000D03*
D19*
X91450000Y-58000000D03*
X88550000Y-58000000D03*
D16*
X65500000Y-55912500D03*
X65500000Y-54087500D03*
D14*
X79900000Y-30460000D03*
D15*
X84100000Y-30460000D03*
X79900000Y-35960000D03*
X84100000Y-35960000D03*
D19*
X103450000Y-58000000D03*
X100550000Y-58000000D03*
D12*
X105796000Y-58082000D03*
X107696000Y-58082000D03*
X106746000Y-55462000D03*
D16*
X92000000Y-55912500D03*
X92000000Y-54087500D03*
D10*
X47000000Y-40966000D03*
D11*
X49450000Y-43256000D03*
X44550000Y-43256000D03*
X49450000Y-51084000D03*
X44550000Y-51084000D03*
D10*
X47000000Y-53374000D03*
D16*
X32000000Y-55912500D03*
X32000000Y-54087500D03*
D14*
X31900000Y-30460000D03*
D15*
X36100000Y-30460000D03*
X31900000Y-35960000D03*
X36100000Y-35960000D03*
D13*
X30000000Y-49562500D03*
X30000000Y-51437500D03*
D12*
X34050000Y-58125000D03*
X35950000Y-58125000D03*
X35000000Y-55505000D03*
D10*
X23110000Y-40966000D03*
D11*
X25560000Y-43256000D03*
X20660000Y-43256000D03*
X25560000Y-51084000D03*
X20660000Y-51084000D03*
D10*
X23110000Y-53374000D03*
D19*
X31950000Y-58000000D03*
X29050000Y-58000000D03*
D14*
X103900000Y-30460000D03*
D15*
X108100000Y-30460000D03*
X103900000Y-35960000D03*
X108100000Y-35960000D03*
D13*
X66500000Y-50062500D03*
X66500000Y-51937500D03*
D10*
X82746000Y-40923000D03*
D11*
X85196000Y-43213000D03*
X80296000Y-43213000D03*
X85196000Y-51041000D03*
X80296000Y-51041000D03*
D10*
X82746000Y-53331000D03*
D14*
X55900000Y-30460000D03*
D15*
X60100000Y-30460000D03*
X55900000Y-35960000D03*
X60100000Y-35960000D03*
D14*
X91900000Y-30460000D03*
D15*
X96100000Y-30460000D03*
X91900000Y-35960000D03*
X96100000Y-35960000D03*
D13*
X102000000Y-50062500D03*
X102000000Y-51937500D03*
D16*
X79500000Y-55912500D03*
X79500000Y-54087500D03*
D26*
X58960000Y-68310000D03*
X50260000Y-68310000D03*
D16*
X68000000Y-55912500D03*
X68000000Y-54087500D03*
X29500000Y-55912500D03*
X29500000Y-54087500D03*
D27*
X89000000Y-60000000D03*
X86106000Y-59690000D03*
X25000000Y-58000000D03*
X49000000Y-58000000D03*
X52349000Y-56470000D03*
X109000000Y-58000000D03*
D28*
X50260000Y-70750000D03*
D27*
X22060000Y-61100000D03*
X97282000Y-59182000D03*
X37000000Y-58000000D03*
X39750000Y-57330000D03*
X73000000Y-58000000D03*
X27780000Y-58020000D03*
X101000000Y-60000000D03*
X75849000Y-57050000D03*
X64349000Y-56520000D03*
X61000000Y-58000000D03*
D28*
X20160000Y-67080000D03*
D27*
X27000000Y-46000000D03*
X27000000Y-60000000D03*
X39000000Y-46000000D03*
X39500000Y-60500000D03*
X51000000Y-46000000D03*
X51500000Y-59500000D03*
X64000000Y-60000000D03*
X63000000Y-46000000D03*
X75000000Y-46000000D03*
X75000000Y-59000000D03*
X86000000Y-58000000D03*
X86450000Y-46000000D03*
X99000000Y-46000000D03*
X97050000Y-57889338D03*
X59690000Y-86868000D03*
X62992000Y-90424000D03*
X58674000Y-85852000D03*
X70358000Y-87884000D03*
X25654000Y-55372000D03*
X112268000Y-51816000D03*
X37592000Y-55372000D03*
X112268000Y-53097000D03*
X112268000Y-54864000D03*
X50038000Y-55372000D03*
X62738000Y-55372000D03*
X112268000Y-56116000D03*
X112014000Y-56896000D03*
X73660000Y-55372000D03*
X111500000Y-57652000D03*
X85801200Y-55270400D03*
X110884301Y-58162802D03*
X98199138Y-55679538D03*
D29*
X17640000Y-40030000D03*
X29000000Y-40000000D03*
X41000000Y-40000000D03*
X52832000Y-40000000D03*
X65000000Y-40000000D03*
X77000000Y-41000000D03*
X89000000Y-40000000D03*
X101000000Y-40000000D03*
D30*
X39750000Y-57330000D02*
X39750000Y-57550000D01*
X28849000Y-51000000D02*
X28849000Y-53436500D01*
X59950000Y-58125000D02*
X60875000Y-58125000D01*
X54500000Y-50062500D02*
X53349000Y-51213500D01*
X99849000Y-57299000D02*
X100550000Y-58000000D01*
X30000000Y-49562500D02*
X28849000Y-50713500D01*
X88550000Y-58000000D02*
X88550000Y-59550000D01*
X66500000Y-50062500D02*
X65349000Y-51213500D01*
X108163000Y-91653000D02*
X109474000Y-92964000D01*
X85304000Y-59690000D02*
X86106000Y-59690000D01*
D31*
X50260000Y-68310000D02*
X50260000Y-70750000D01*
D30*
X39750000Y-55832500D02*
X41495000Y-54087500D01*
X108163000Y-86614000D02*
X108163000Y-91653000D01*
X35950000Y-58125000D02*
X36875000Y-58125000D01*
X75849000Y-57050000D02*
X75849000Y-55238500D01*
X100550000Y-58000000D02*
X100550000Y-59550000D01*
X52349000Y-57299000D02*
X53050000Y-58000000D01*
X17050000Y-50512500D02*
X17050000Y-53137500D01*
X19200000Y-61100000D02*
X17550000Y-59450000D01*
X47950000Y-58125000D02*
X48875000Y-58125000D01*
X76849000Y-53936500D02*
X77000000Y-54087500D01*
X101000000Y-54087500D02*
X99849000Y-55238500D01*
X53349000Y-51213500D02*
X53349000Y-53936500D01*
X28349000Y-55238500D02*
X28349000Y-57299000D01*
X99849000Y-55238500D02*
X99849000Y-57299000D01*
X64349000Y-56520000D02*
X64349000Y-52151000D01*
X53349000Y-53936500D02*
X53500000Y-54087500D01*
X29500000Y-54087500D02*
X28349000Y-55238500D01*
X72028571Y-58125000D02*
X72875000Y-58125000D01*
X36875000Y-58125000D02*
X37000000Y-58000000D01*
X64349000Y-57299000D02*
X64349000Y-56520000D01*
X75849000Y-57050000D02*
X75849000Y-57299000D01*
X18000000Y-49500000D02*
X18000000Y-49562500D01*
X24060000Y-58125000D02*
X24875000Y-58125000D01*
X18000000Y-49562500D02*
X17050000Y-50512500D01*
X95950000Y-58310000D02*
X96410000Y-58310000D01*
X101031250Y-51031250D02*
X100849000Y-51213500D01*
X27800000Y-58000000D02*
X29050000Y-58000000D01*
X100550000Y-59550000D02*
X101000000Y-60000000D01*
X41995000Y-49562500D02*
X40844000Y-50713500D01*
X52349000Y-56470000D02*
X52349000Y-57299000D01*
X89000000Y-54087500D02*
X87690000Y-55397500D01*
X40844000Y-50713500D02*
X40844000Y-53436500D01*
X65349000Y-51213500D02*
X65349000Y-51500000D01*
X24875000Y-58125000D02*
X25000000Y-58000000D01*
X72875000Y-58125000D02*
X73000000Y-58000000D01*
X65349000Y-53936500D02*
X65500000Y-54087500D01*
X48875000Y-58125000D02*
X49000000Y-58000000D01*
X87690000Y-57140000D02*
X88550000Y-58000000D01*
X28849000Y-53436500D02*
X29500000Y-54087500D01*
X87690000Y-55397500D02*
X87690000Y-57140000D01*
X83696000Y-58082000D02*
X85304000Y-59690000D01*
X16849000Y-55238500D02*
X16849000Y-57299000D01*
X75849000Y-55238500D02*
X77000000Y-54087500D01*
X28349000Y-57299000D02*
X29050000Y-58000000D01*
X100849000Y-51213500D02*
X100849000Y-53936500D01*
X101031250Y-51031250D02*
X101000000Y-51000000D01*
X65050000Y-58000000D02*
X64349000Y-57299000D01*
X64349000Y-52151000D02*
X65000000Y-51500000D01*
X96410000Y-58310000D02*
X97282000Y-59182000D01*
X100849000Y-53936500D02*
X101000000Y-54087500D01*
X22060000Y-61100000D02*
X19200000Y-61100000D01*
X88849000Y-51213500D02*
X88849000Y-53936500D01*
X90000000Y-50062500D02*
X88849000Y-51213500D01*
X83696000Y-58082000D02*
X83918000Y-58082000D01*
X76849000Y-51213500D02*
X76849000Y-53936500D01*
X28849000Y-50713500D02*
X28849000Y-51000000D01*
X107696000Y-58082000D02*
X108918000Y-58082000D01*
X65349000Y-51500000D02*
X65000000Y-51500000D01*
X88550000Y-59550000D02*
X89000000Y-60000000D01*
X52349000Y-55238500D02*
X52349000Y-56470000D01*
X53500000Y-54087500D02*
X52349000Y-55238500D01*
X27780000Y-58020000D02*
X27800000Y-58000000D01*
X88849000Y-53936500D02*
X89000000Y-54087500D01*
X108918000Y-58082000D02*
X109000000Y-58000000D01*
X40844000Y-53436500D02*
X41495000Y-54087500D01*
X17550000Y-59450000D02*
X17550000Y-58000000D01*
X75849000Y-57299000D02*
X76550000Y-58000000D01*
X78000000Y-50062500D02*
X76849000Y-51213500D01*
X40200000Y-58000000D02*
X41045000Y-58000000D01*
X65349000Y-51500000D02*
X65349000Y-53936500D01*
X17050000Y-53137500D02*
X18000000Y-54087500D01*
X102000000Y-50062500D02*
X101031250Y-51031250D01*
X39750000Y-57330000D02*
X39750000Y-55832500D01*
X16849000Y-57299000D02*
X17550000Y-58000000D01*
X60875000Y-58125000D02*
X61000000Y-58000000D01*
X39750000Y-57550000D02*
X40200000Y-58000000D01*
X18000000Y-54087500D02*
X16849000Y-55238500D01*
X73860000Y-90437000D02*
X73860000Y-90972000D01*
X73860000Y-90972000D02*
X73860000Y-94272000D01*
X77683000Y-86614000D02*
X73860000Y-90437000D01*
D32*
X106934000Y-92964000D02*
X102148000Y-97750000D01*
D31*
X30275000Y-76000000D02*
X33275000Y-79000000D01*
X33275000Y-79000000D02*
X42000000Y-79000000D01*
X20160000Y-67080000D02*
X20160000Y-69130000D01*
X44000000Y-77000000D02*
X52855000Y-77000000D01*
X22830000Y-71800000D02*
X30275000Y-71800000D01*
D32*
X68794000Y-97750000D02*
X57310000Y-86266000D01*
D31*
X30275000Y-71800000D02*
X30275000Y-76000000D01*
X20160000Y-69130000D02*
X22830000Y-71800000D01*
X52855000Y-77000000D02*
X57310000Y-81455000D01*
X57310000Y-69960000D02*
X58960000Y-68310000D01*
D32*
X57310000Y-86266000D02*
X57310000Y-81455000D01*
D31*
X42000000Y-79000000D02*
X44000000Y-77000000D01*
D32*
X102148000Y-97750000D02*
X68794000Y-97750000D01*
D31*
X57310000Y-81455000D02*
X57310000Y-69960000D01*
D30*
X27000000Y-46000000D02*
X27000000Y-60000000D01*
X82763000Y-86614000D02*
X82763000Y-91735000D01*
X82763000Y-91735000D02*
X81534000Y-92964000D01*
X39000000Y-60000000D02*
X39500000Y-60500000D01*
X39000000Y-46000000D02*
X39000000Y-60000000D01*
X85303000Y-86614000D02*
X85303000Y-91735000D01*
X85303000Y-91735000D02*
X84074000Y-92964000D01*
X51000000Y-59000000D02*
X51500000Y-59500000D01*
X51000000Y-46000000D02*
X51000000Y-59000000D01*
X87843000Y-86614000D02*
X87843000Y-91735000D01*
X87843000Y-91735000D02*
X86614000Y-92964000D01*
X63500000Y-46500000D02*
X63000000Y-46000000D01*
X64000000Y-60000000D02*
X63500000Y-59500000D01*
X63500000Y-59500000D02*
X63500000Y-46500000D01*
X90383000Y-91735000D02*
X89154000Y-92964000D01*
X90383000Y-86614000D02*
X90383000Y-91735000D01*
X75000000Y-59000000D02*
X74840000Y-58840000D01*
X92923000Y-86614000D02*
X92923000Y-91735000D01*
X74840000Y-58840000D02*
X74840000Y-46160000D01*
X92923000Y-91735000D02*
X91694000Y-92964000D01*
X74840000Y-46160000D02*
X75000000Y-46000000D01*
X86500000Y-57500000D02*
X86000000Y-58000000D01*
X86500000Y-54907125D02*
X86552200Y-54959325D01*
X86450000Y-46450000D02*
X86500000Y-46500000D01*
X86552200Y-55581475D02*
X86500000Y-55633675D01*
X95463000Y-91735000D02*
X94234000Y-92964000D01*
X86500000Y-46500000D02*
X86500000Y-54907125D01*
X86500000Y-55633675D02*
X86500000Y-57500000D01*
X95463000Y-86614000D02*
X95463000Y-91735000D01*
X86450000Y-46000000D02*
X86450000Y-46450000D01*
X86552200Y-54959325D02*
X86552200Y-55581475D01*
X98003000Y-86614000D02*
X98003000Y-91735000D01*
X98980000Y-46020000D02*
X99000000Y-46000000D01*
X98980000Y-55959338D02*
X98980000Y-46020000D01*
X97050000Y-57889338D02*
X98980000Y-55959338D01*
X98003000Y-91735000D02*
X96774000Y-92964000D01*
X100543000Y-86614000D02*
X100543000Y-91735000D01*
X100543000Y-91735000D02*
X99314000Y-92964000D01*
D33*
X80010000Y-65024000D02*
X80010000Y-66507000D01*
D30*
X18651000Y-56563500D02*
X18651000Y-57500000D01*
D33*
X26135000Y-62100000D02*
X76070000Y-62100000D01*
X80010000Y-66507000D02*
X75143000Y-71374000D01*
D30*
X20000000Y-56151000D02*
X18651000Y-57500000D01*
X18651000Y-57500000D02*
X18651000Y-58151000D01*
X20000000Y-55912500D02*
X20000000Y-56151000D01*
X19982500Y-59482500D02*
X23517500Y-59482500D01*
X18000000Y-55912500D02*
X18651000Y-56563500D01*
D33*
X22160000Y-58125000D02*
X22160000Y-57705000D01*
X23517500Y-59482500D02*
X26135000Y-62100000D01*
X78994000Y-65024000D02*
X80010000Y-65024000D01*
D30*
X18651000Y-58151000D02*
X19982500Y-59482500D01*
D33*
X22160000Y-58125000D02*
X23517500Y-59482500D01*
X76070000Y-62100000D02*
X78994000Y-65024000D01*
D30*
X32000000Y-55912500D02*
X31238500Y-55912500D01*
D33*
X77683000Y-69891000D02*
X77683000Y-71374000D01*
D30*
X31639208Y-59537500D02*
X35462500Y-59537500D01*
X29500000Y-55912500D02*
X30151000Y-56563500D01*
X31238500Y-55912500D02*
X30151000Y-57000000D01*
D33*
X82550000Y-65024000D02*
X79206000Y-61680000D01*
X82550000Y-65024000D02*
X77683000Y-69891000D01*
D30*
X30151000Y-58049292D02*
X31639208Y-59537500D01*
D33*
X79206000Y-61680000D02*
X37605000Y-61680000D01*
D30*
X30151000Y-57000000D02*
X30151000Y-58049292D01*
D33*
X37605000Y-61680000D02*
X35462500Y-59537500D01*
D30*
X30151000Y-56563500D02*
X30151000Y-57000000D01*
D33*
X35462500Y-59537500D02*
X34050000Y-58125000D01*
D30*
X34050000Y-57901000D02*
X34050000Y-58125000D01*
X42146000Y-57761500D02*
X43995000Y-55912500D01*
X46050000Y-57705000D02*
X46050000Y-58125000D01*
D33*
X49185000Y-61260000D02*
X47962500Y-60037500D01*
D30*
X43634208Y-59537500D02*
X46962500Y-59537500D01*
D33*
X85090000Y-65024000D02*
X82763000Y-67351000D01*
X47212500Y-59287500D02*
X46050000Y-58125000D01*
D30*
X42146000Y-58049292D02*
X43634208Y-59537500D01*
D33*
X82763000Y-67351000D02*
X82763000Y-71374000D01*
X47962500Y-60037500D02*
X47212500Y-59287500D01*
D30*
X46962500Y-59537500D02*
X47212500Y-59287500D01*
X41495000Y-55912500D02*
X42146000Y-56563500D01*
X42146000Y-56563500D02*
X42146000Y-58049292D01*
D33*
X85090000Y-65024000D02*
X81326000Y-61260000D01*
X81326000Y-61260000D02*
X49185000Y-61260000D01*
D30*
X42146000Y-58049292D02*
X42146000Y-57761500D01*
X54226708Y-60036708D02*
X54870000Y-60680000D01*
X54151000Y-56563500D02*
X54151000Y-58049292D01*
X56650000Y-60680000D02*
X58050000Y-59280000D01*
X58050000Y-57705000D02*
X58050000Y-58125000D01*
D33*
X83711100Y-62484000D02*
X82086100Y-60859000D01*
X87630000Y-65024000D02*
X90383000Y-67777000D01*
D30*
X58050000Y-59280000D02*
X58050000Y-58125000D01*
X54151000Y-57761500D02*
X54151000Y-58049292D01*
D33*
X87630000Y-65024000D02*
X85090000Y-62484000D01*
D30*
X53500000Y-55912500D02*
X54151000Y-56563500D01*
X54226708Y-58125000D02*
X54226708Y-60036708D01*
D33*
X59212500Y-59287500D02*
X58050000Y-58125000D01*
X82086100Y-60859000D02*
X60784000Y-60859000D01*
X90383000Y-67777000D02*
X90383000Y-71374000D01*
D30*
X54151000Y-58049292D02*
X54226708Y-58125000D01*
D33*
X60784000Y-60859000D02*
X59212500Y-59287500D01*
D30*
X54870000Y-60680000D02*
X56650000Y-60680000D01*
D33*
X85090000Y-62484000D02*
X83711100Y-62484000D01*
D30*
X56000000Y-55912500D02*
X53500000Y-55912500D01*
X70128571Y-57705000D02*
X70128571Y-58125000D01*
X65500000Y-55912500D02*
X66151000Y-56563500D01*
D33*
X72461571Y-60458000D02*
X82252200Y-60458000D01*
X87122000Y-61976000D02*
X90170000Y-65024000D01*
D30*
X70128571Y-58931429D02*
X70128571Y-58125000D01*
X67451708Y-59350000D02*
X69710000Y-59350000D01*
D33*
X92923000Y-67777000D02*
X92923000Y-71374000D01*
D30*
X69710000Y-59350000D02*
X70128571Y-58931429D01*
X66151000Y-56563500D02*
X66151000Y-58049292D01*
D33*
X83770200Y-61976000D02*
X87122000Y-61976000D01*
X90170000Y-65024000D02*
X92923000Y-67777000D01*
X70128571Y-58125000D02*
X71001786Y-58998214D01*
D30*
X68000000Y-55912500D02*
X65500000Y-55912500D01*
D33*
X82252200Y-60458000D02*
X83770200Y-61976000D01*
D30*
X66151000Y-58049292D02*
X67451708Y-59350000D01*
D33*
X71001786Y-58998214D02*
X72461571Y-60458000D01*
X95463000Y-67777000D02*
X95463000Y-71374000D01*
X82303000Y-59697000D02*
X81796000Y-59190000D01*
D30*
X77651000Y-58651000D02*
X78697000Y-59697000D01*
X77000000Y-55912500D02*
X77651000Y-56563500D01*
D33*
X81796000Y-59190000D02*
X81796000Y-58082000D01*
D30*
X78697000Y-59697000D02*
X82303000Y-59697000D01*
D33*
X84074000Y-61468000D02*
X82303000Y-59697000D01*
D30*
X81796000Y-58082000D02*
X81796000Y-57662000D01*
X78302000Y-55912500D02*
X77651000Y-56563500D01*
D33*
X89154000Y-61468000D02*
X84074000Y-61468000D01*
D30*
X77651000Y-56563500D02*
X77651000Y-58651000D01*
D33*
X92710000Y-65024000D02*
X89154000Y-61468000D01*
D30*
X79500000Y-55912500D02*
X78302000Y-55912500D01*
D33*
X92710000Y-65024000D02*
X95463000Y-67777000D01*
D30*
X90000000Y-56912500D02*
X89000000Y-55912500D01*
X91601708Y-60000000D02*
X90000000Y-58398292D01*
D33*
X98003000Y-67777000D02*
X98003000Y-71374000D01*
D30*
X90000000Y-58398292D02*
X90000000Y-56912500D01*
X94050000Y-58310000D02*
X94050000Y-57890000D01*
D33*
X94050000Y-63050000D02*
X94050000Y-60000000D01*
D30*
X90000000Y-56912500D02*
X91000000Y-55912500D01*
D33*
X94050000Y-60000000D02*
X94050000Y-58310000D01*
X95250000Y-65024000D02*
X98003000Y-67777000D01*
X95250000Y-64250000D02*
X94050000Y-63050000D01*
D30*
X91000000Y-55912500D02*
X92000000Y-55912500D01*
X94050000Y-60000000D02*
X91601708Y-60000000D01*
D33*
X95250000Y-65024000D02*
X95250000Y-64250000D01*
D30*
X103000000Y-55912500D02*
X104000000Y-55912500D01*
D33*
X97790000Y-65024000D02*
X97790000Y-62210000D01*
X97790000Y-65024000D02*
X101813000Y-65024000D01*
D30*
X102000000Y-61000000D02*
X102000000Y-56912500D01*
X102000000Y-56912500D02*
X101000000Y-55912500D01*
X102000000Y-56912500D02*
X103000000Y-55912500D01*
D33*
X102000000Y-61000000D02*
X102878000Y-61000000D01*
X101813000Y-65024000D02*
X108163000Y-71374000D01*
X99000000Y-61000000D02*
X102000000Y-61000000D01*
X102878000Y-61000000D02*
X105796000Y-58082000D01*
X97790000Y-62210000D02*
X99000000Y-61000000D01*
X97790000Y-64487857D02*
X97790000Y-65024000D01*
D30*
X71360000Y-90972000D02*
X71360000Y-94272000D01*
X75143000Y-86614000D02*
X71360000Y-90397000D01*
X71360000Y-90397000D02*
X71360000Y-90972000D01*
X88859000Y-83058000D02*
X100543000Y-71374000D01*
X69366636Y-83058000D02*
X65556636Y-86868000D01*
X88859000Y-83058000D02*
X69366636Y-83058000D01*
X65556636Y-86868000D02*
X59690000Y-86868000D01*
X67310000Y-88900000D02*
X69342000Y-86868000D01*
X73406000Y-84074000D02*
X101600000Y-84074000D01*
X62992000Y-90424000D02*
X64516000Y-88900000D01*
X101600000Y-84074000D02*
X110703000Y-74971000D01*
X70612000Y-86868000D02*
X73406000Y-84074000D01*
X110703000Y-74971000D02*
X110703000Y-71374000D01*
X69342000Y-86868000D02*
X70612000Y-86868000D01*
X64516000Y-88900000D02*
X67310000Y-88900000D01*
X71536200Y-80060800D02*
X70561200Y-80060800D01*
X64770000Y-85852000D02*
X58674000Y-85852000D01*
X71536200Y-80060800D02*
X80223000Y-71374000D01*
X70561200Y-80060800D02*
X68326000Y-82296000D01*
X68326000Y-82296000D02*
X64770000Y-85852000D01*
X70358000Y-87884000D02*
X71374000Y-87884000D01*
X74168000Y-85090000D02*
X101559000Y-85090000D01*
X101559000Y-85090000D02*
X103083000Y-86614000D01*
X103083000Y-86614000D02*
X103083000Y-91653000D01*
X71374000Y-87884000D02*
X74168000Y-85090000D01*
X103083000Y-91653000D02*
X104394000Y-92964000D01*
X103083000Y-86614000D02*
X103083000Y-86522200D01*
X20000000Y-54087500D02*
X20000000Y-53437500D01*
X20000000Y-53437500D02*
X18000000Y-51437500D01*
X32000000Y-54087500D02*
X32000000Y-53437500D01*
X32000000Y-53437500D02*
X30000000Y-51437500D01*
X41995000Y-51437500D02*
X41995000Y-52087500D01*
X41995000Y-52087500D02*
X43995000Y-54087500D01*
X56000000Y-54087500D02*
X56000000Y-53437500D01*
X56000000Y-53437500D02*
X54500000Y-51937500D01*
X68000000Y-53437500D02*
X66500000Y-51937500D01*
X68000000Y-54087500D02*
X68000000Y-53437500D01*
X79500000Y-54087500D02*
X79500000Y-53437500D01*
X79500000Y-53437500D02*
X78000000Y-51937500D01*
X92000000Y-54087500D02*
X92000000Y-53937500D01*
X92000000Y-53937500D02*
X90000000Y-51937500D01*
X104000000Y-54087500D02*
X104000000Y-53937500D01*
X104000000Y-53937500D02*
X102000000Y-51937500D01*
D34*
X23110000Y-55505000D02*
X23110000Y-53374000D01*
D33*
X114993000Y-51816000D02*
X117025000Y-49784000D01*
D34*
X23270000Y-53374000D02*
X25560000Y-51084000D01*
D30*
X20450000Y-58000000D02*
X20615000Y-58000000D01*
D33*
X25521000Y-55505000D02*
X25654000Y-55372000D01*
D34*
X23110000Y-53374000D02*
X23270000Y-53374000D01*
D30*
X20615000Y-58000000D02*
X23110000Y-55505000D01*
D33*
X23110000Y-55505000D02*
X25521000Y-55505000D01*
D34*
X23110000Y-53374000D02*
X22950000Y-53374000D01*
D33*
X112341000Y-51816000D02*
X114993000Y-51816000D01*
D34*
X22950000Y-53374000D02*
X20660000Y-51084000D01*
X19900000Y-35775000D02*
X24100000Y-35775000D01*
X22950000Y-40966000D02*
X20660000Y-43256000D01*
X23270000Y-40966000D02*
X25560000Y-43256000D01*
X24100000Y-35775000D02*
X24100000Y-39976000D01*
D30*
X22950000Y-40966000D02*
X23270000Y-40966000D01*
X23110000Y-40966000D02*
X22950000Y-40966000D01*
D34*
X24100000Y-39976000D02*
X23110000Y-40966000D01*
X35000000Y-53374000D02*
X34840000Y-53374000D01*
X35160000Y-53374000D02*
X37450000Y-51084000D01*
D30*
X32505000Y-58000000D02*
X35000000Y-55505000D01*
D33*
X112257000Y-53097000D02*
X112776000Y-52578000D01*
D34*
X35000000Y-53374000D02*
X35160000Y-53374000D01*
X34840000Y-53374000D02*
X32550000Y-51084000D01*
D33*
X112776000Y-52578000D02*
X116771000Y-52578000D01*
D30*
X31950000Y-58000000D02*
X32505000Y-58000000D01*
D34*
X35000000Y-55505000D02*
X35000000Y-53374000D01*
D33*
X116771000Y-52578000D02*
X117025000Y-52324000D01*
X35000000Y-55505000D02*
X37459000Y-55505000D01*
X37459000Y-55505000D02*
X37592000Y-55372000D01*
D34*
X35000000Y-40966000D02*
X35160000Y-40966000D01*
X36100000Y-35960000D02*
X36100000Y-39866000D01*
X35160000Y-40966000D02*
X37450000Y-43256000D01*
X35000000Y-40966000D02*
X34840000Y-40966000D01*
X36100000Y-35960000D02*
X31900000Y-35960000D01*
X36100000Y-39866000D02*
X35000000Y-40966000D01*
X34840000Y-40966000D02*
X32550000Y-43256000D01*
D33*
X112268000Y-54864000D02*
X117025000Y-54864000D01*
D30*
X43945000Y-58000000D02*
X44505000Y-58000000D01*
D34*
X47000000Y-53374000D02*
X46840000Y-53374000D01*
X47000000Y-53374000D02*
X47160000Y-53374000D01*
D33*
X47000000Y-55505000D02*
X49905000Y-55505000D01*
D30*
X44505000Y-58000000D02*
X47000000Y-55505000D01*
D34*
X46840000Y-53374000D02*
X44550000Y-51084000D01*
D33*
X49905000Y-55505000D02*
X50038000Y-55372000D01*
D34*
X47160000Y-53374000D02*
X49450000Y-51084000D01*
X47000000Y-55505000D02*
X47000000Y-53374000D01*
X47000000Y-40966000D02*
X46840000Y-40966000D01*
X47160000Y-40966000D02*
X49450000Y-43256000D01*
X48100000Y-35960000D02*
X48100000Y-39866000D01*
X46840000Y-40966000D02*
X44550000Y-43256000D01*
X48100000Y-39866000D02*
X47000000Y-40966000D01*
X43900000Y-35960000D02*
X48100000Y-35960000D01*
X47000000Y-40966000D02*
X47160000Y-40966000D01*
X59160000Y-40966000D02*
X61450000Y-43256000D01*
X59000000Y-40966000D02*
X59160000Y-40966000D01*
X58840000Y-40966000D02*
X56550000Y-43256000D01*
X60100000Y-35960000D02*
X60100000Y-39866000D01*
X60100000Y-39866000D02*
X59000000Y-40966000D01*
X60100000Y-35960000D02*
X55900000Y-35960000D01*
X59000000Y-40966000D02*
X58840000Y-40966000D01*
D33*
X112250000Y-56116000D02*
X113538000Y-57404000D01*
D34*
X58840000Y-53374000D02*
X56550000Y-51084000D01*
X59000000Y-53374000D02*
X59160000Y-53374000D01*
X59000000Y-55505000D02*
X59000000Y-53374000D01*
X59160000Y-53374000D02*
X61450000Y-51084000D01*
X59000000Y-53374000D02*
X58840000Y-53374000D01*
D33*
X62605000Y-55505000D02*
X62738000Y-55372000D01*
X113538000Y-57404000D02*
X117025000Y-57404000D01*
D30*
X55950000Y-58000000D02*
X56505000Y-58000000D01*
X56505000Y-58000000D02*
X59000000Y-55505000D01*
D33*
X59000000Y-55505000D02*
X62605000Y-55505000D01*
D34*
X72100000Y-35960000D02*
X72100000Y-39944571D01*
X72100000Y-39944571D02*
X71078571Y-40966000D01*
X67900000Y-35960000D02*
X72100000Y-35960000D01*
X71078571Y-40966000D02*
X71238571Y-40966000D01*
X70918571Y-40966000D02*
X68628571Y-43256000D01*
X71078571Y-40966000D02*
X70918571Y-40966000D01*
X71238571Y-40966000D02*
X73528571Y-43256000D01*
D33*
X71078571Y-55505000D02*
X73527000Y-55505000D01*
D34*
X71238571Y-53374000D02*
X73528571Y-51084000D01*
X71078571Y-53374000D02*
X70918571Y-53374000D01*
D33*
X112014000Y-56896000D02*
X115062000Y-59944000D01*
D34*
X71078571Y-53374000D02*
X71078571Y-55505000D01*
D33*
X115062000Y-59944000D02*
X117025000Y-59944000D01*
D34*
X70918571Y-53374000D02*
X68628571Y-51084000D01*
D33*
X73527000Y-55505000D02*
X73660000Y-55372000D01*
D30*
X67950000Y-58000000D02*
X68583571Y-58000000D01*
D34*
X71078571Y-53374000D02*
X71238571Y-53374000D01*
D30*
X68583571Y-58000000D02*
X71078571Y-55505000D01*
D33*
X116332000Y-62484000D02*
X117025000Y-62484000D01*
D34*
X82746000Y-55462000D02*
X82746000Y-53331000D01*
X82586000Y-53331000D02*
X80296000Y-51041000D01*
X82746000Y-53331000D02*
X82586000Y-53331000D01*
D30*
X80208000Y-58000000D02*
X82746000Y-55462000D01*
D34*
X82906000Y-53331000D02*
X85196000Y-51041000D01*
D33*
X82746000Y-55462000D02*
X85609600Y-55462000D01*
X111500000Y-57652000D02*
X116332000Y-62484000D01*
X85609600Y-55462000D02*
X85801200Y-55270400D01*
D30*
X79450000Y-58000000D02*
X80208000Y-58000000D01*
D34*
X82746000Y-53331000D02*
X82906000Y-53331000D01*
X84100000Y-35960000D02*
X79900000Y-35960000D01*
X82906000Y-40923000D02*
X85196000Y-43213000D01*
X84100000Y-39569000D02*
X82746000Y-40923000D01*
X82746000Y-40923000D02*
X82906000Y-40923000D01*
X82586000Y-40923000D02*
X80296000Y-43213000D01*
X82746000Y-40923000D02*
X82586000Y-40923000D01*
X84100000Y-35960000D02*
X84100000Y-39569000D01*
D33*
X110884301Y-58162802D02*
X110884301Y-58468301D01*
D34*
X95000000Y-53559000D02*
X94840000Y-53559000D01*
X95000000Y-53559000D02*
X95160000Y-53559000D01*
X95000000Y-53559000D02*
X95000000Y-55690000D01*
D33*
X111252000Y-59690000D02*
X116586000Y-65024000D01*
X116586000Y-65024000D02*
X117025000Y-65024000D01*
D34*
X95160000Y-53559000D02*
X97450000Y-51269000D01*
D30*
X92690000Y-58000000D02*
X95000000Y-55690000D01*
D33*
X111252000Y-58836000D02*
X111252000Y-59690000D01*
X98188676Y-55690000D02*
X98199138Y-55679538D01*
D30*
X91450000Y-58000000D02*
X92690000Y-58000000D01*
D34*
X94840000Y-53559000D02*
X92550000Y-51269000D01*
D33*
X110884301Y-58468301D02*
X111252000Y-58836000D01*
X95000000Y-55690000D02*
X98188676Y-55690000D01*
D34*
X94840000Y-41151000D02*
X92550000Y-43441000D01*
X96100000Y-35960000D02*
X96100000Y-40051000D01*
X95000000Y-41151000D02*
X95160000Y-41151000D01*
X91900000Y-35960000D02*
X96100000Y-35960000D01*
X95000000Y-41151000D02*
X94840000Y-41151000D01*
X96100000Y-40051000D02*
X95000000Y-41151000D01*
X95160000Y-41151000D02*
X97450000Y-43441000D01*
X106906000Y-40923000D02*
X109196000Y-43213000D01*
X103900000Y-35960000D02*
X108100000Y-35960000D01*
X106746000Y-40923000D02*
X106906000Y-40923000D01*
X106586000Y-40923000D02*
X104296000Y-43213000D01*
X108100000Y-35960000D02*
X108100000Y-39569000D01*
X108100000Y-39569000D02*
X106746000Y-40923000D01*
X106746000Y-40923000D02*
X106586000Y-40923000D01*
X106746000Y-53331000D02*
X106906000Y-53331000D01*
D33*
X110236000Y-57658000D02*
X108040000Y-55462000D01*
D34*
X106746000Y-55462000D02*
X106746000Y-53331000D01*
D33*
X110236000Y-60775000D02*
X110236000Y-57658000D01*
D34*
X106746000Y-53331000D02*
X106586000Y-53331000D01*
X106906000Y-53331000D02*
X109196000Y-51041000D01*
D30*
X103450000Y-58000000D02*
X104208000Y-58000000D01*
D33*
X117025000Y-67564000D02*
X110236000Y-60775000D01*
D34*
X106586000Y-53331000D02*
X104296000Y-51041000D01*
D30*
X104208000Y-58000000D02*
X106746000Y-55462000D01*
D33*
X108040000Y-55462000D02*
X106746000Y-55462000D01*
X26435000Y-27940000D02*
X24100000Y-30275000D01*
D34*
X19900000Y-30275000D02*
X24100000Y-30275000D01*
D33*
X51664800Y-25761000D02*
X51263800Y-26162000D01*
X63097700Y-25761000D02*
X51664800Y-25761000D01*
X39370000Y-26162000D02*
X37592000Y-27940000D01*
X63137700Y-25721000D02*
X63097700Y-25761000D01*
X117025000Y-29464000D02*
X113991440Y-29464000D01*
X110248440Y-25721000D02*
X63137700Y-25721000D01*
D34*
X17571000Y-40030000D02*
X17410000Y-39869000D01*
D33*
X113991440Y-29464000D02*
X110248440Y-25721000D01*
X51263800Y-26162000D02*
X39370000Y-26162000D01*
D34*
X17410000Y-39869000D02*
X17410000Y-32765000D01*
X17410000Y-32765000D02*
X19900000Y-30275000D01*
D33*
X37592000Y-27940000D02*
X26435000Y-27940000D01*
D34*
X17640000Y-40030000D02*
X17571000Y-40030000D01*
D33*
X63263800Y-26162000D02*
X63303800Y-26122000D01*
X36100000Y-30460000D02*
X39890000Y-26670000D01*
X39890000Y-26670000D02*
X51322900Y-26670000D01*
D34*
X31900000Y-30460000D02*
X29000000Y-33360000D01*
X29000000Y-33360000D02*
X29000000Y-40000000D01*
D33*
X51322900Y-26670000D02*
X51830900Y-26162000D01*
X110082340Y-26122000D02*
X115964340Y-32004000D01*
D34*
X36100000Y-30460000D02*
X31900000Y-30460000D01*
D33*
X115964340Y-32004000D02*
X117025000Y-32004000D01*
X51830900Y-26162000D02*
X63263800Y-26162000D01*
X63303800Y-26122000D02*
X110082340Y-26122000D01*
X117025000Y-34475000D02*
X117025000Y-34544000D01*
X63469900Y-26523000D02*
X109916240Y-26523000D01*
X63322900Y-26670000D02*
X63469900Y-26523000D01*
X109916240Y-26523000D02*
X113431000Y-30037760D01*
X48100000Y-30460000D02*
X51890000Y-26670000D01*
X113431000Y-30881000D02*
X117025000Y-34475000D01*
D34*
X41000000Y-33360000D02*
X41000000Y-40000000D01*
D33*
X113431000Y-30037760D02*
X113431000Y-30881000D01*
D34*
X48100000Y-30460000D02*
X43900000Y-30460000D01*
D33*
X51890000Y-26670000D02*
X63322900Y-26670000D01*
D34*
X43900000Y-30460000D02*
X41000000Y-33360000D01*
D33*
X113030000Y-33089000D02*
X117025000Y-37084000D01*
X60100000Y-30460000D02*
X63636000Y-26924000D01*
X63636000Y-26924000D02*
X109750140Y-26924000D01*
X109750140Y-26924000D02*
X113030000Y-30203860D01*
D34*
X52832000Y-33528000D02*
X52832000Y-40000000D01*
X60100000Y-30460000D02*
X55900000Y-30460000D01*
D33*
X113030000Y-30203860D02*
X113030000Y-33089000D01*
D34*
X55900000Y-30460000D02*
X52832000Y-33528000D01*
D33*
X112268000Y-30107800D02*
X112268000Y-34867000D01*
X109552200Y-27392000D02*
X112268000Y-30107800D01*
X112268000Y-34867000D02*
X117025000Y-39624000D01*
X72100000Y-30460000D02*
X75168000Y-27392000D01*
D34*
X72100000Y-30460000D02*
X67900000Y-30460000D01*
X65000000Y-33360000D02*
X65000000Y-40000000D01*
D33*
X75168000Y-27392000D02*
X109552200Y-27392000D01*
D34*
X67900000Y-30460000D02*
X65000000Y-33360000D01*
X77000000Y-33360000D02*
X77000000Y-41000000D01*
D33*
X109386100Y-27793000D02*
X111760000Y-30166900D01*
X111760000Y-36899000D02*
X117025000Y-42164000D01*
X111760000Y-30166900D02*
X111760000Y-36899000D01*
X84100000Y-30460000D02*
X86767000Y-27793000D01*
X86767000Y-27793000D02*
X109386100Y-27793000D01*
D34*
X79900000Y-30460000D02*
X77000000Y-33360000D01*
X84100000Y-30460000D02*
X79900000Y-30460000D01*
D33*
X96100000Y-30460000D02*
X98366000Y-28194000D01*
X109220000Y-28194000D02*
X111252000Y-30226000D01*
X111252000Y-38931000D02*
X117025000Y-44704000D01*
X98366000Y-28194000D02*
X109220000Y-28194000D01*
X111252000Y-30226000D02*
X111252000Y-38931000D01*
D34*
X91900000Y-30460000D02*
X89000000Y-33360000D01*
X89000000Y-33360000D02*
X89000000Y-40000000D01*
X91900000Y-30460000D02*
X96100000Y-30460000D01*
D33*
X117025000Y-47244000D02*
X110851000Y-41070000D01*
D34*
X103900000Y-30460000D02*
X101000000Y-33360000D01*
X103900000Y-30460000D02*
X108100000Y-30460000D01*
D33*
X110851000Y-33211000D02*
X108100000Y-30460000D01*
D34*
X101000000Y-33360000D02*
X101000000Y-40000000D01*
D33*
X110851000Y-41070000D02*
X110851000Y-33211000D01*
M02*
